<svg width="15" height="16" viewBox="0 0 15 16" fill="none" xmlns="http://www.w3.org/2000/svg">
<path d="M1.57143 14.0714H3.98214V11.6607H1.57143V14.0714ZM4.51786 14.0714H7.19643V11.6607H4.51786V14.0714ZM1.57143 11.125H3.98214V8.44643H1.57143V11.125ZM4.51786 11.125H7.19643V8.44643H4.51786V11.125ZM1.57143 7.91071H3.98214V5.5H1.57143V7.91071ZM7.73214 14.0714H10.4107V11.6607H7.73214V14.0714ZM4.51786 7.91071H7.19643V5.5H4.51786V7.91071ZM10.9464 14.0714H13.3571V11.6607H10.9464V14.0714ZM7.73214 11.125H10.4107V8.44643H7.73214V11.125ZM4.78571 3.89286V1.48214C4.78571 1.33984 4.66016 1.21429 4.51786 1.21429H3.98214C3.83984 1.21429 3.71429 1.33984 3.71429 1.48214V3.89286C3.71429 4.03516 3.83984 4.16071 3.98214 4.16071H4.51786C4.66016 4.16071 4.78571 4.03516 4.78571 3.89286ZM10.9464 11.125H13.3571V8.44643H10.9464V11.125ZM7.73214 7.91071H10.4107V5.5H7.73214V7.91071ZM10.9464 7.91071H13.3571V5.5H10.9464V7.91071ZM11.2143 3.89286V1.48214C11.2143 1.33984 11.0887 1.21429 10.9464 1.21429H10.4107C10.2684 1.21429 10.1429 1.33984 10.1429 1.48214V3.89286C10.1429 4.03516 10.2684 4.16071 10.4107 4.16071H10.9464C11.0887 4.16071 11.2143 4.03516 11.2143 3.89286ZM14.4286 3.35714V14.0714C14.4286 14.6574 13.9431 15.1429 13.3571 15.1429H1.57143C0.985491 15.1429 0.5 14.6574 0.5 14.0714V3.35714C0.5 2.7712 0.985491 2.28571 1.57143 2.28571H2.64286V1.48214C2.64286 0.745535 3.24554 0.142856 3.98214 0.142856H4.51786C5.25446 0.142856 5.85714 0.745535 5.85714 1.48214V2.28571H9.07143V1.48214C9.07143 0.745535 9.67411 0.142856 10.4107 0.142856H10.9464C11.683 0.142856 12.2857 0.745535 12.2857 1.48214V2.28571H13.3571C13.9431 2.28571 14.4286 2.7712 14.4286 3.35714Z" fill="#959595"/>
</svg>
