<svg width="35" height="28" viewBox="0 0 35 28" fill="none" xmlns="http://www.w3.org/2000/svg">
<path d="M1 5.875L14.4721 15.1626C15.563 15.9147 16.1085 16.2907 16.7018 16.4364C17.2259 16.565 17.7741 16.565 18.2982 16.4364C18.8915 16.2907 19.4369 15.9147 20.5279 15.1626L34 5.875M8.92 27H26.08C28.8523 27 30.2384 27 31.2973 26.4687C32.2287 26.0013 32.9859 25.2555 33.4605 24.3382C34 23.2954 34 21.9303 34 19.2V8.8C34 6.06974 34 4.70462 33.4605 3.6618C32.9859 2.74451 32.2287 1.99873 31.2973 1.53134C30.2384 1 28.8523 1 26.08 1H8.92C6.14774 1 4.76161 1 3.70275 1.53134C2.77134 1.99873 2.01409 2.74451 1.53952 3.6618C1 4.70462 1 6.06974 1 8.8V19.2C1 21.9303 1 23.2954 1.53952 24.3382C2.01409 25.2555 2.77134 26.0013 3.70275 26.4687C4.76161 27 6.14774 27 8.92 27Z" stroke="#DAAD49" stroke-width="1.5" stroke-linecap="round" stroke-linejoin="round"/>
</svg>
