<svg width="13" height="10" viewBox="0 0 13 10" fill="none" xmlns="http://www.w3.org/2000/svg">
<path d="M5 9.25C5 9.46875 5.10156 10 4.75 10H2.25C1.00781 10 0 8.99219 0 7.75V2.25C0 1.00781 1.00781 -2.38419e-07 2.25 -2.38419e-07H4.75C4.88281 -2.38419e-07 5 0.117187 5 0.25C5 0.46875 5.10156 0.999999 4.75 0.999999H2.25C1.5625 0.999999 1 1.5625 1 2.25V7.75C1 8.4375 1.5625 9 2.25 9H4.5C4.69531 9 5 8.96094 5 9.25ZM12.25 5C12.25 5.13281 12.1953 5.25781 12.1016 5.35156L7.85156 9.60156C7.75781 9.69531 7.63281 9.75 7.5 9.75C7.22656 9.75 7 9.52344 7 9.25V7H3.5C3.22656 7 3 6.77344 3 6.5V3.5C3 3.22656 3.22656 3 3.5 3H7V0.749999C7 0.476562 7.22656 0.25 7.5 0.25C7.63281 0.25 7.75781 0.304687 7.85156 0.398437L12.1016 4.64844C12.1953 4.74219 12.25 4.86719 12.25 5Z" fill="#EFB775"/>
</svg>
