<svg width="34" height="34" viewBox="0 0 34 34" fill="none" xmlns="http://www.w3.org/2000/svg">
<path d="M20.3243 7.3492C21.8817 7.65168 23.3129 8.40992 24.4349 9.52687C25.5568 10.6438 26.3185 12.0687 26.6223 13.619M20.3243 1C23.5599 1.35783 26.577 2.80028 28.8804 5.09048C31.1838 7.38069 32.6365 10.3825 33 13.6032M14.2288 19.8302C12.313 17.923 10.8003 15.7664 9.69054 13.4654C9.59508 13.2675 9.54736 13.1685 9.51069 13.0433C9.38039 12.5983 9.47398 12.0519 9.74505 11.675C9.82133 11.569 9.91246 11.4782 10.0947 11.2968C10.6521 10.7419 10.9309 10.4644 11.1131 10.1854C11.8003 9.13317 11.8003 7.77669 11.1131 6.72449C10.9309 6.44548 10.6521 6.16801 10.0947 5.61308L9.78402 5.30376C8.93668 4.46021 8.51301 4.03843 8.05799 3.80931C7.15306 3.35364 6.08437 3.35364 5.17944 3.80931C4.72442 4.03843 4.30075 4.46021 3.45341 5.30377L3.20207 5.55398C2.35763 6.39465 1.93541 6.81498 1.61294 7.38646C1.25512 8.0206 0.997839 9.00551 1.00001 9.73284C1.00197 10.3883 1.12969 10.8363 1.38513 11.7322C2.75788 16.5471 5.34798 21.0906 9.15542 24.881C12.9629 28.6714 17.5267 31.25 22.3632 32.6166C23.2632 32.8709 23.7131 32.998 24.3716 33C25.1022 33.0022 26.0915 32.746 26.7285 32.3898C27.3025 32.0688 27.7247 31.6484 28.5692 30.8078L28.8205 30.5575C29.6678 29.714 30.0915 29.2922 30.3217 28.8392C30.7794 27.9383 30.7794 26.8744 30.3217 25.9735C30.0915 25.5206 29.6678 25.0988 28.8205 24.2552L28.5098 23.9459C27.9524 23.391 27.6737 23.1135 27.3934 22.9321C26.3365 22.248 24.9739 22.248 23.917 22.9321C23.6367 23.1135 23.358 23.391 22.8006 23.9459C22.6183 24.1273 22.5272 24.2181 22.4207 24.294C22.0421 24.5639 21.4932 24.657 21.0462 24.5273C20.9204 24.4908 20.821 24.4433 20.6222 24.3483C18.3109 23.2435 16.1447 21.7375 14.2288 19.8302Z" stroke="#DAAD49" stroke-width="1.6" stroke-linecap="round" stroke-linejoin="round"/>
</svg>
