<svg width="15" height="18" viewBox="0 0 15 18" fill="none" xmlns="http://www.w3.org/2000/svg">
<path d="M1.67691 9.63317C1.42709 9.37595 1.30218 9.24734 1.21285 9.09725C1.13366 8.96419 1.07529 8.81911 1.03991 8.66736C1 8.4962 1 8.31431 1 7.95055L1 6.48226C1 5.64933 1 5.23286 1.15744 4.91472C1.29592 4.63488 1.51689 4.40736 1.78868 4.26477C2.09766 4.10267 2.50215 4.10267 3.31111 4.10267H5.45937C5.81267 4.10267 5.98932 4.10267 6.15556 4.14377C6.30294 4.1802 6.44384 4.24029 6.57308 4.32183C6.71885 4.41381 6.84376 4.54242 7.09358 4.79964L12.3658 10.2281C12.9378 10.817 13.2238 11.1115 13.331 11.4511C13.4253 11.7498 13.4253 12.0716 13.331 12.3703C13.2238 12.7099 12.9378 13.0043 12.3658 13.5933L10.5786 15.4334C10.0066 16.0224 9.72061 16.3169 9.3908 16.4272C9.1007 16.5243 8.78819 16.5243 8.49809 16.4272C8.16828 16.3169 7.88227 16.0224 7.31024 15.4334L1.67691 9.63317Z" fill="#D6A546"/>
<path d="M14 8.19259L8.51536 2.54545C8.14063 2.15962 7.95327 1.9667 7.73462 1.82874C7.54076 1.70642 7.32941 1.61629 7.10833 1.56164C6.85898 1.5 6.594 1.5 6.06406 1.5L3.16667 1.5M1 6.48226L1 7.95055C1 8.31431 1 8.4962 1.03991 8.66736C1.07529 8.81911 1.13366 8.96419 1.21285 9.09725C1.30218 9.24734 1.42709 9.37595 1.67691 9.63317L7.31024 15.4334C7.88227 16.0224 8.16828 16.3169 8.49809 16.4272C8.78819 16.5243 9.1007 16.5243 9.3908 16.4272C9.72061 16.3169 10.0066 16.0224 10.5786 15.4334L12.3658 13.5933C12.9378 13.0043 13.2238 12.7099 13.331 12.3703C13.4253 12.0716 13.4253 11.7498 13.331 11.4511C13.2238 11.1115 12.9378 10.817 12.3658 10.2281L7.09358 4.79964C6.84376 4.54242 6.71885 4.41381 6.57308 4.32183C6.44384 4.24029 6.30294 4.1802 6.15556 4.14377C5.98932 4.10267 5.81267 4.10267 5.45937 4.10267H3.31111C2.50215 4.10267 2.09766 4.10267 1.78868 4.26477C1.51689 4.40736 1.29592 4.63488 1.15744 4.91472C1 5.23286 1 5.64933 1 6.48226Z" stroke="#D6A546" stroke-width="1.3" stroke-linecap="round" stroke-linejoin="round"/>
</svg>
