<svg width="24" height="24" viewBox="0 0 24 24" fill="none" xmlns="http://www.w3.org/2000/svg">
<g clip-path="url(#clip0_1_131)">
<path d="M22.56 12C22.56 11.52 22.176 11.136 21.696 11.136H12.288V6.23998C12.288 5.75998 11.904 5.37598 11.424 5.37598C11.232 5.37598 11.136 5.37598 10.944 5.47198L1.82401 11.232C1.44001 11.52 1.24801 12.096 1.53601 12.48C1.63201 12.576 1.72801 12.672 1.82401 12.768L10.944 18.528C11.328 18.816 11.904 18.624 12.096 18.24C12.192 18.144 12.192 17.952 12.192 17.76V12.864H21.6C22.176 12.864 22.56 12.48 22.56 12ZM10.56 7.77598V16.128L3.93601 12L10.56 7.77598Z" fill="#423930"/>
</g>
<defs>
<clipPath id="clip0_1_131">
<rect width="24" height="24" fill="white"/>
</clipPath>
</defs>
</svg>
