<svg width="24" height="24" viewBox="0 0 24 24" fill="none" xmlns="http://www.w3.org/2000/svg">
<g clip-path="url(#clip0_1_134)">
<path d="M1.44 12C1.44 11.52 1.824 11.136 2.304 11.136H11.712V6.23998C11.712 5.75998 12.096 5.37598 12.576 5.37598C12.768 5.37598 12.864 5.37598 13.056 5.47198L22.176 11.232C22.56 11.52 22.752 12.096 22.464 12.48C22.368 12.576 22.272 12.672 22.176 12.768L13.056 18.528C12.672 18.816 12.096 18.624 11.904 18.24C11.808 18.144 11.808 17.952 11.808 17.76V12.864H2.304C1.824 12.864 1.44 12.48 1.44 12ZM13.44 7.77598V16.128L20.064 11.904L13.44 7.77598Z" fill="#423930"/>
</g>
<defs>
<clipPath id="clip0_1_134">
<rect width="24" height="24" fill="white"/>
</clipPath>
</defs>
</svg>
